<?xml version="1.0" encoding="utf-8"?>
<!-- Generator: Adobe Illustrator 17.1.0, SVG Export Plug-In . SVG Version: 6.00 Build 0)  -->
<!DOCTYPE svg PUBLIC "-//W3C//DTD SVG 1.1//EN" "http://www.w3.org/Graphics/SVG/1.1/DTD/svg11.dtd">
<svg version="1.1" id="Layer_1" xmlns="http://www.w3.org/2000/svg" xmlns:xlink="http://www.w3.org/1999/xlink" x="0px" y="0px"
	 viewBox="0 0 350 350" enable-background="new 0 0 350 350" xml:space="preserve">
<rect display="none" fill="#F47D31" width="350" height="350"/>
<g>
	<g>
		<g>
			<g>
				<path fill="#FFFFFF" d="M234,147.6c-2.8-2.8-2.8-7.4,0-10.3l56.1-56.1c2.8-2.8,1.9-5.1-2.1-5.1h-18.5c-4,0-9.6,2.3-12.4,5.1
					l-56.1,56.1c-2.8,2.8-2.8,7.4,0,10.3l56.1,56.1c2.8,2.8,8.4,5.1,12.4,5.1H288c4,0,4.9-2.3,2.1-5.1L234,147.6z"/>
			</g>
			<g>
				<path fill="#FFFFFF" d="M160.4,216.3c0,5,4.1,9.1,9.1,9.1h11c5,0,9.1-4.1,9.1-9.1V68.7c0-5-4.1-9.1-9.1-9.1h-11
					c-5,0-9.1,4.1-9.1,9.1V216.3z"/>
			</g>
			<g>
				<path fill="#FFFFFF" d="M115.8,147.6c2.8-2.8,2.8-7.4,0-10.3L59.7,81.3c-2.8-2.8-1.9-5.1,2.1-5.1h18.5c4,0,9.6,2.3,12.4,5.1
					l56.1,56.1c2.8,2.8,2.8,7.4,0,10.3l-56.1,56.1c-2.8,2.8-8.4,5.1-12.4,5.1H61.9c-4,0-4.9-2.3-2.1-5.1L115.8,147.6z"/>
			</g>
		</g>
		<g display="none">
			<path display="inline" fill="#FFFFFF" d="M276.9,216.5v8.9h-1.4v-8.9h-2.9v-1.1h7.1v1.1H276.9z"/>
			<path display="inline" fill="#FFFFFF" d="M290.4,225.4c0,0-1.1-7.7-1.2-8.3h0c-0.1,0.5-2.6,8.3-2.6,8.3h-1.5c0,0-2.5-7.6-2.7-8.3
				h0c-0.1,0.8-1,8.3-1,8.3h-1.4l1.5-10h1.7c0,0,2.5,7.6,2.7,8.3h0c0.2-0.7,2.7-8.3,2.7-8.3h1.7l1.5,10H290.4z"/>
		</g>
		<g>
			<path fill="#FFFFFF" d="M288.1,219.1c0,3.2-2.7,5.8-5.8,5.8c-3.3,0-5.9-2.6-5.9-5.8c0-3.2,2.6-5.8,5.9-5.8
				C285.6,213.2,288.1,215.8,288.1,219.1z M278,219c0,2.3,1.9,4.4,4.3,4.4c2.4,0,4.3-1.9,4.3-4.3c0-2.4-1.9-4.4-4.3-4.4
				C279.9,214.7,278,216.7,278,219z M283.1,222.1l-1.4-2.5h-0.1v2.5h-1.3V216h2.1c1.5,0,2.1,0.6,2.1,1.6c0,1-0.6,1.6-1.4,1.7
				c0.1,0.2,0.3,0.5,0.5,0.8l1.1,1.9H283.1z M282.2,217h-0.6v1.7h0.4c0.8,0,1.1-0.5,1.1-0.9C283.1,217.2,282.9,217,282.2,217z"/>
		</g>
	</g>
	<g>
		<g>
			<g>
				<path fill="#FFFFFF" d="M79.7,279.1l-14.1-10.4l0,10.4h-7.4v-26.9h7.4l0,9.8l13-9.8l11.1,0l-17.8,12.7l19.8,14.2L79.7,279.1z"/>
				<path fill="#FFFFFF" d="M121.5,279.1l-3-5.5h-15.2l-2.9,5.5l-7.7,0l15.2-26.8h6.5l15.3,26.9L121.5,279.1z M110.9,259.4l-4.3,8.1
					l8.5,0.1L110.9,259.4z"/>
				<path fill="#FFFFFF" d="M159.8,279.1l-3-5.5h-15.2l-2.9,5.5l-7.7,0l15.2-26.8h6.5l15.3,26.9L159.8,279.1z M149.3,259.4l-4.3,8.1
					l8.5,0.1L149.3,259.4z"/>
				<path fill="#FFFFFF" d="M170.9,279.1l0-3.9l16.6-17h-16.6v-6h28.6v3.5l-16.9,17.1h16.9v6.2H170.9z"/>
				<path fill="#FFFFFF" d="M206.9,279.1v-26.9h7.4v26.9H206.9z"/>
				<path fill="#FFFFFF" d="M248.6,279.1c-1.1-0.9-17.6-14.9-19.4-16.5v16.5h-6.8v-26.9h5l19.4,16.5v-16.5h6.8v26.9H248.6z"/>
				<path fill="#FFFFFF" d="M290.3,277.6c-1,1-2.9,1.4-5.4,1.4h-17.5c-2.6,0-4.4-0.5-5.5-1.4c-1-1-1.6-2.7-1.6-5.3v-13.5
					c0-2.6,0.5-4.3,1.6-5.3c1-1,2.9-1.4,5.5-1.4h17.5c2.5,0,4.3,0.5,5.4,1.4c1.1,0.9,1.6,2.6,1.6,5.1v1.9l-7.2,0v-2.4h-16.9v14.7
					h16.9v-4.2h-9.5v-5.8h16.7v9.6C291.9,274.9,291.4,276.7,290.3,277.6z"/>
			</g>
		</g>
	</g>
</g>
</svg>
