<?xml version="1.0" encoding="utf-8"?>
<!-- Generator: Adobe Illustrator 18.1.1, SVG Export Plug-In . SVG Version: 6.00 Build 0)  -->
<svg version="1.1" xmlns="http://www.w3.org/2000/svg" xmlns:xlink="http://www.w3.org/1999/xlink" x="0px" y="0px"
	 viewBox="0 0 360 57.6" enable-background="new 0 0 360 57.6" xml:space="preserve">
<g id="Logo">
	<g>
		<g>
			<g>
				<g>
					<path fill="#3B6E8F" d="M23.5,44L8,32.7L8,44H0V14.7h8l0,10.7l14.2-10.7l12.1,0L14.9,28.5L36.5,44L23.5,44z"/>
					<path fill="#3B6E8F" d="M68.9,44l-3.2-6H49.2L46,44l-8.3,0l16.5-29.2h7.1L78,44L68.9,44z M57.5,22.6l-4.7,8.8l9.3,0.1
						L57.5,22.6z"/>
					<path fill="#3B6E8F" d="M110.7,44l-3.2-6H91l-3.2,6l-8.3,0L96,14.7h7.1L119.8,44L110.7,44z M99.3,22.6l-4.7,8.8l9.3,0.1
						L99.3,22.6z"/>
					<path fill="#3B6E8F" d="M122.8,44l0-4.2l18.1-18.6h-18.1v-6.5H154v3.9l-18.4,18.7H154V44H122.8z"/>
					<path fill="#3B6E8F" d="M162.1,44V14.7h8.1V44H162.1z"/>
					<path fill="#3B6E8F" d="M207.5,44c-1.2-1-19.2-16.2-21.2-18v18H179V14.7h5.5l21.2,18v-18h7.4V44H207.5z"/>
					<path fill="#3B6E8F" d="M253,42.4c-1.1,1-3.1,1.6-5.9,1.6h-19c-2.9,0-4.8-0.5-6-1.6c-1.1-1-1.7-3-1.7-5.7V22
						c0-2.8,0.6-4.7,1.7-5.7c1.1-1,3.1-1.6,6-1.6h19c2.8,0,4.7,0.5,5.9,1.5c1.2,1,1.7,2.9,1.7,5.5v2l-7.9,0v-2.6h-18.4v16h18.4v-4.6
						h-10.4v-6.3h18.2v10.4C254.7,39.5,254.2,41.4,253,42.4z"/>
				</g>
			</g>
			<g>
				<g>
					<path fill="#F47D30" d="M326.1,30.6c-1-1-1-2.6,0-3.6l19.5-19.5c1-1,0.6-1.8-0.7-1.8h-6.4c-1.4,0-3.3,0.8-4.3,1.8L314.6,27
						c-1,1-1,2.6,0,3.6l19.5,19.5c1,1,2.9,1.8,4.3,1.8h6.4c1.4,0,1.7-0.8,0.7-1.8L326.1,30.6z"/>
				</g>
				<g>
					<path fill="#F47D30" d="M300.5,54.5c0,1.7,1.4,3.2,3.2,3.2h3.8c1.7,0,3.2-1.4,3.2-3.2V3.2c0-1.7-1.4-3.2-3.2-3.2h-3.8
						c-1.7,0-3.2,1.4-3.2,3.2V54.5z"/>
				</g>
				<g>
					<path fill="#F47D30" d="M285,30.6c1-1,1-2.6,0-3.6L265.5,7.5c-1-1-0.7-1.8,0.7-1.8h6.4c1.4,0,3.3,0.8,4.3,1.8L296.5,27
						c1,1,1,2.6,0,3.6L277,50.1c-1,1-2.9,1.8-4.3,1.8h-6.4c-1.4,0-1.7-0.8-0.7-1.8L285,30.6z"/>
				</g>
			</g>
		</g>
		<g display="none">
			<path display="inline" fill="#F47D30" d="M351.7,6.4v4.9h-0.8V6.4h-1.6V5.7h4v0.6H351.7z"/>
			<path display="inline" fill="#F47D30" d="M359.2,11.3l-0.5-3.2c-0.1-0.6-0.1-1-0.2-1.4h0c-0.1,0.3-0.1,0.6-0.3,1l-1.2,3.6h-0.8
				L355.1,8c-0.1-0.4-0.3-0.9-0.4-1.2h0c0,0.5-0.1,0.9-0.2,1.4l-0.4,3.1h-0.8l0.8-5.6h0.9l1.2,3.5c0.1,0.3,0.2,0.7,0.3,1.1h0
				c0.1-0.4,0.2-0.7,0.3-1.1l1.2-3.6h0.9l0.8,5.6H359.2z"/>
		</g>
	</g>
	<g>
		<path fill="#F47D30" d="M358.6,10.4c0,2.5-2.1,4.6-4.6,4.6c-2.6,0-4.6-2-4.6-4.6c0-2.5,2.1-4.6,4.6-4.6
			C356.6,5.8,358.6,7.8,358.6,10.4z M350.6,10.3c0,1.8,1.5,3.4,3.4,3.4c1.9,0,3.4-1.5,3.4-3.4c0-1.9-1.5-3.4-3.4-3.4
			C352.1,7,350.6,8.5,350.6,10.3z M354.7,12.7l-1.1-2h-0.1v2h-1V7.9h1.7c1.2,0,1.6,0.5,1.6,1.3c0,0.8-0.4,1.2-1.1,1.4
			c0.1,0.1,0.3,0.4,0.4,0.6l0.9,1.5H354.7z M353.9,8.7h-0.4v1.3h0.3c0.7,0,0.9-0.4,0.9-0.7C354.6,8.9,354.5,8.7,353.9,8.7z"/>
	</g>
</g>
<g id="Clear_Space">
	<rect x="-46.1" y="-31.4" fill="none" width="438.3" height="121.5"/>
</g>
</svg>
