<?xml version="1.0" encoding="utf-8"?>
<!-- Generator: Adobe Illustrator 18.1.1, SVG Export Plug-In . SVG Version: 6.00 Build 0)  -->
<svg version="1.1" id="Capa_1" xmlns="http://www.w3.org/2000/svg" xmlns:xlink="http://www.w3.org/1999/xlink" x="0px" y="0px"
	 viewBox="-294 386.8 21.9 21.2" enable-background="new -294 386.8 21.9 21.2" xml:space="preserve">
<g>
	<path fill="none" stroke="#FFFFFF" stroke-width="0.75" stroke-miterlimit="2.6131" d="M-276,387.2c2,0,3.5,1.6,3.5,3.5
		c0,2-1.6,3.5-3.5,3.5c-2,0-3.6-1.6-3.6-3.5C-279.6,388.8-278,387.2-276,387.2L-276,387.2z M-276,387.8c-1.6,0-2.9,1.3-2.9,2.9
		c0,1.6,1.3,2.9,2.9,2.9c1.6,0,2.9-1.3,2.9-2.9C-273.1,389.2-274.4,387.8-276,387.8z"/>
	<path fill="none" stroke="#FFFFFF" stroke-width="0.75" stroke-miterlimit="2.6131" d="M-279.6,403.8l-7.4-4.6
		c0.3-0.5,0.5-1.1,0.5-1.8s-0.2-1.3-0.5-1.8l7.4-4.6c0.1,1.8,1.5,3.2,3.3,3.4v6.2C-278,400.6-279.5,402-279.6,403.8z"/>
	<path fill="none" stroke="#FFFFFF" stroke-width="0.75" stroke-miterlimit="2.6131" d="M-276,400.5c2,0,3.5,1.6,3.5,3.5
		s-1.6,3.5-3.5,3.5c-2,0-3.6-1.6-3.6-3.5S-278,400.5-276,400.5L-276,400.5z M-276,401.2c-1.6,0-2.9,1.3-2.9,2.9
		c0,1.6,1.3,2.9,2.9,2.9c1.6,0,2.9-1.3,2.9-2.9S-274.4,401.2-276,401.2z"/>
	<path fill="none" stroke="#FFFFFF" stroke-width="0.75" stroke-miterlimit="2.6131" d="M-290.1,393.8c2,0,3.5,1.6,3.5,3.5
		c0,2-1.6,3.5-3.5,3.5c-2,0-3.5-1.6-3.5-3.5S-292,393.8-290.1,393.8L-290.1,393.8z M-290.1,394.5c-1.6,0-2.9,1.3-2.9,2.9
		c0,1.6,1.3,2.9,2.9,2.9c1.6,0,2.9-1.3,2.9-2.9C-287.2,395.8-288.5,394.5-290.1,394.5z"/>
</g>
</svg>
