<?xml version="1.0" encoding="utf-8"?>
<!-- Generator: Adobe Illustrator 18.1.1, SVG Export Plug-In . SVG Version: 6.00 Build 0)  -->
<svg version="1.1" id="Capa_1" xmlns="http://www.w3.org/2000/svg" xmlns:xlink="http://www.w3.org/1999/xlink" x="0px" y="0px"
	 viewBox="163 -73 938 938" enable-background="new 163 -73 938 938" xml:space="preserve">
<g>
	<g>
		<path fill="#404040" d="M213.8,675c0,13.4,10.9,24.3,24.3,24.3h787.8c13.4,0,24.3-10.9,24.3-24.3V266.6H213.8V675z M812.8,403.9
			c0-6.4,5.2-11.6,11.6-11.6h112.1c6.4,0,11.6,5.2,11.6,11.6v27.5c0,6.4-5.2,11.6-11.6,11.6H824.4c-6.4,0-11.6-5.2-11.6-11.6V403.9z
			 M315.9,403.3c0-6.1,4.9-11,11-11h36.8v-36.8c0-6.1,4.9-11,11-11h28.7c6.1,0,11,4.9,11,11v36.8h36.8c6.1,0,11,4.9,11,11V432
			c0,6.1-4.9,11-11,11h-36.8v36.8c0,6.1-4.9,11-11,11h-28.7c-6.1,0-11-4.9-11-11V443h-36.8c-6.1,0-11-4.9-11-11L315.9,403.3
			L315.9,403.3z"/>
		<path fill="#404040" d="M1078.3,241.6c12.5,0,22.7-10.2,22.7-22.7v-38.2c0-12.5-10.2-22.7-22.7-22.7H951.5v-42.6
			c0-12.5-10.2-22.7-22.7-22.7H831c-12.5,0-22.7,10.2-22.7,22.7V158H464.6v-42.6c0-12.5-10.2-22.7-22.7-22.7h-97.8
			c-12.5,0-22.7,10.2-22.7,22.7V158H185.7c-12.5,0-22.7,10.2-22.7,22.7v38.2c0,12.5,10.2,22.7,22.7,22.7h28.1h836.4L1078.3,241.6
			L1078.3,241.6z"/>
	</g>
</g>
</svg>
