<?xml version="1.0" encoding="utf-8"?>
<!-- Generator: Adobe Illustrator 18.1.1, SVG Export Plug-In . SVG Version: 6.00 Build 0)  -->
<svg version="1.1" id="Capa_1" xmlns="http://www.w3.org/2000/svg" xmlns:xlink="http://www.w3.org/1999/xlink" x="0px" y="0px"
	 viewBox="-260 352.1 89.9 89.9" enable-background="new -260 352.1 89.9 89.9" xml:space="preserve">
<g>
	<g>
		<path fill="#404040" d="M-171.5,389.5h-2c-0.8,0-1.5,0.7-1.5,1.5v25.7c0,0.8,0.7,1.5,1.5,1.5h2c0.8,0,1.5-0.7,1.5-1.5v-25.7
			C-170.1,390.1-170.7,389.5-171.5,389.5z"/>
		<path fill="#404040" d="M-258.5,388.2c-0.8,0-1.5,0.7-1.5,1.5v28.2c0,0.8,0.7,1.5,1.5,1.5h4c0.8,0,1.5-0.7,1.5-1.5v-28.2
			c0-0.8-0.7-1.5-1.5-1.5L-258.5,388.2L-258.5,388.2z"/>
		<path fill="#404040" d="M-202.4,423.8c3.3-1.3,6.6-2.6,9.9-3.9c0.3-0.1,0.6-0.2,0.9-0.2c2.4,0,4.9,0,7.3,0c2.5,0,4.1-1.6,4.1-4.2
			v-8.3c0-0.6,0.5-1.1,1.1-1.1l1.1,0c0.8,0,0.9-0.3,0.9-0.9l0-4.8c0-0.5-0.4-0.9-0.9-0.9h-1.1c-0.6,0-1.1-0.5-1.1-1.1l0-10.1
			c0-1.5-0.6-2.5-1.7-3.4c-2-1.4-7.8-5.5-8.7-6.1c-0.7-0.4-1.4-0.6-2.2-0.6l-10,0c-0.9,0-1.5-0.7-1.5-1.5v-0.3
			c0-0.9,0.7-1.6,1.6-1.6h9.1c0.9,0,1.6-0.7,1.6-1.6v-1.8c0-0.9-0.7-1.6-1.6-1.6h-30.1c-0.9,0-1.6,0.7-1.6,1.6v1.8
			c0,0.9,0.7,1.6,1.6,1.6h9.8c0.9,0,1.6,0.7,1.6,1.6v0.4c0,0.9-0.7,1.6-1.6,1.5l-9.9,0c-1.9-0.1-3.4,0.6-4.9,1.6
			c-2.1,1.5-4.2,3.1-6.2,4.7c-0.5,0.4-1.2,0.6-1.8,0.6c-2,0-4,0-6,0c-2.5,0-4.1,1.6-4.1,4.1l0,6.9c0,0.6-0.5,1.1-1.1,1.1h-0.9
			c-1.1,0-2,0.9-2,2v10.9c0,1.1,0.9,2,2,2h0.9c0.6,0,1.1,0.5,1.1,1.1c0,1.6,0,4.5,0,6.2c0,1.6,0,4.5,2.9,4.5h40.4
			C-203.2,424.1-202.8,424-202.4,423.8z"/>
	</g>
</g>
</svg>
