<?xml version="1.0" encoding="utf-8"?>
<!-- Generator: Adobe Illustrator 18.1.1, SVG Export Plug-In . SVG Version: 6.00 Build 0)  -->
<svg version="1.1" id="Capa_1" xmlns="http://www.w3.org/2000/svg" xmlns:xlink="http://www.w3.org/1999/xlink" x="0px" y="0px"
	 viewBox="169 -79 950 950" enable-background="new 169 -79 950 950" xml:space="preserve">
<g>
	<g>
		<path fill="#404040" d="M195.5,323.8c13.7,11.4,101.1,84.6,131,109.8c1.7,1.4,14.5,78.3,20.3,114.4c5.3,33.5,28.3,61,68.1,59.7
			c26.8-0.8,202.1-0.4,262.9,0c18.6,0.1,34.3-5.9,47.8-18.4c10.1-9.3,220.8-194,247.7-217.6c1.8-1.6,4.2-2.3,6.5-2l34.1,4.7
			c4.2,0.6,8.1-2.1,9.1-6.2l13.3-54.1c1-4-1.1-8.1-4.9-9.6l-75.3-30.3c-2.2-0.9-4.8-0.8-6.9,0.3c-20,10.5-123.3,64.6-148.7,78.6
			c0,0-35.5-25.4-51.3-36.6c-12.3-8.8-26.1-14.7-42-14.6c-32.9,0.4-101.9,0.1-103.5,0.1v-6.9c0-2.8,2.3-5.2,5.2-5.2h35.9
			c3.4,0,6.2-2.8,6.2-6.2v-70.2c0-3.4-2.8-6.2-6.2-6.2L456,207.4c-3.4,0-6.2,2.8-6.2,6.2l-0.1,70.5c0,3.4,2.8,6.2,6.2,6.2h33
			c2.8,0,5.2,2.3,5.2,5.2v6.7l-75.5,0c0,0-130.3-107.4-141.8-111.9c-18.6-7.3-37.2-8.5-55.9-1.1c-21.5,8.5-35.9,24.2-45.1,45.2
			C161.9,265.7,169.9,302.6,195.5,323.8z M397.6,346.6c50.8-0.3,101.6-0.1,152.3-0.1c50.6,0,101.3,0,151.9,0c0.3,0,0.7,0,1-0.1
			c6.4-0.2,6.9,9.4,0.5,10c-49.8,4.3-227.7,18.4-271.6,21.9c-5.7,0.4-10.1,5-10.5,10.6c0,0-10.9,156.1-11,156.5
			c-0.3,4.2-5.6,7.1-9.6,6.9c-5.7-0.3-5.9-4-6.6-8.8c-1.1-8.3-2.1-16.7-3.2-25c-3-23.2-6-46.4-9-69.6c-3.2-24.4-5.7-49-9.6-73.2
			C369.4,357.6,380.9,346.7,397.6,346.6z M213.8,252c9.1-22.2,35.4-34.5,55.8-17.8c0.2,0.2,87.7,71.9,87.7,71.9
			c-28.1,13.5-43,33.9-37.7,66.7c-6.2-5.2-70-58.4-96.2-80.6C211.2,281.9,207.8,266.8,213.8,252z"/>
		<path fill="#404040" d="M1073.4,384.8c-4.2-4.5-8.9-8.5-14.1-11.8c-5-3.1-11.2,1.1-10.5,6.9c1.5,12.9-1.4,24.9-7.1,36.7
			c-16.9,34.9-50.6,78.1-20.5,115.6c17.4,21.8,52.6,27.6,74.8,10.8c18.8-14.3,25.4-40.4,22.3-63.8
			C1114,446.9,1095.7,408.5,1073.4,384.8z"/>
	</g>
</g>
</svg>
