<?xml version="1.0" encoding="utf-8"?>
<!-- Generator: Adobe Illustrator 18.1.1, SVG Export Plug-In . SVG Version: 6.00 Build 0)  -->
<svg version="1.1" id="Capa_1" xmlns="http://www.w3.org/2000/svg" xmlns:xlink="http://www.w3.org/1999/xlink" x="0px" y="0px"
	 viewBox="-291 383.2 27.8 27.8" enable-background="new -291 383.2 27.8 27.8" xml:space="preserve">
<g>
	<path fill="#655F5F" d="M-277.1,383.9c-7.7,0-13.9,1.6-13.9,3.5v4.2c0,0.8,1.2,1.6,3.2,2.2l8.2,10v6.6h1.7l3.2-1.9v-4.7l8.2-10
		c2-0.6,3.2-1.4,3.2-2.2v-4.2C-263.2,385.4-269.4,383.9-277.1,383.9z M-277.1,385.3c6.8,0,11.3,1.2,12.4,2.1
		c-1.1,0.8-5.5,2.1-12.4,2.1c-6.8,0-11.3-1.2-12.4-2.1C-288.4,386.5-283.9,385.3-277.1,385.3z"/>
</g>
</svg>
