<?xml version="1.0" encoding="utf-8"?>
<!-- Generator: Adobe Illustrator 18.1.1, SVG Export Plug-In . SVG Version: 6.00 Build 0)  -->
<svg version="1.1" id="Capa_1" xmlns="http://www.w3.org/2000/svg" xmlns:xlink="http://www.w3.org/1999/xlink" x="0px" y="0px"
	 viewBox="-22 114.5 565.5 565.5" enable-background="new -22 114.5 565.5 565.5" xml:space="preserve">
<g>
	<g>
		<path fill="#655F5F" d="M543.4,360.6c0.2-6.1-4.4-10.6-10.5-10.8c-2.3-0.1-4.7-0.1-7,0c-1.8,0.1-3.6,0.1-5.4,0
			c-0.4-0.1-0.8-0.1-1.3-0.1c-6.6-0.7-12.9-2.8-19.3-4.5c-5.1-1.4-10.8-0.8-16.2-1.1c-0.7,0-1.4,0.3-2.1,0.2
			c-5.2-0.6-9.6,1.2-13.3,4.6c-2.5,2.3-5.4,3.1-8.6,3.1c-7.2,0-14.4,0-21.6,0c-1.7-5.4-3.4-10.9-5.1-16.3
			c-2.1-9.3-5.3-18.3-9.5-26.8c-4.9-11.2-11.1-21.7-19.5-31c-9.2-10.3-20.4-17.9-32.2-24.8c-8.9-5.2-17.8-10.6-26.3-16.4
			c-6.7-4.5-12.9-9.7-19.2-14.8c-6.3-5-13.7-7.5-21-10.2c-7.4-2.7-14.9-5.2-22.3-7.8c-6.4-2.2-12.8-4.8-19.3-6.6
			c-4.1-1.1-8.6-1.6-12.8-1.3c-4.5,0.4-9,1.8-13.4,3.2c-12.1,3.7-24.1,7.5-36.1,11.5c-12,4-24,3.1-36.3,1.3
			c-11.5-1.7-23.1-2.1-34.9-0.5c-11.5,1.5-20.3,6.9-28.3,14.8c-4.2,4.2-8.7,8.1-13.5,11.7c-9.1,4.7-17.9,9.8-26,15.7
			c-3.5,1.6-7.1,2.9-10.6,4.4c-7.8,3.3-12.3,9.9-16.5,16.8c-6.4,10.6-11.3,21.9-14.9,33.8c-2.8,9.3-4.3,19-6.4,28.5
			c-1.4,6.4-2.9,12.9-10,15.8c-2.6,1.1-5.2,2.2-7.8,3.2c-0.6,0.2-1.1,0.5-1.6,0.7c-1.6,0.6-3.3,1.1-4.9,1.7c-0.4,0-0.9,0-1.4-0.1
			c-1.1-0.1-2.2,0.1-3.1,0.5c-0.2,0-0.4,0.1-0.6,0.2c-4.7,1.3-7.9,6.5-6.4,11.3c4.3,13.5,11.1,25.9,20,36.7c0,0.1,0.1,0.1,0.1,0.2
			c3,5,7.4,9.4,11.8,13.4c6.2,5.8,6,5.5,3.6,13.5c-2.1,7.3-4.9,14.4-5.2,22.2c-0.2,6.4,1.9,12.1,3.7,17.9c0.1,0.3,0.2,0.6,0.3,0.9
			c0,0,0,0,0,0.1c0.1,1,0.5,2,0.9,2.9c1,3.3,2,6.6,2.7,10c0.6,2.4,0.2,4.6-0.8,6.5c-0.6,0.7-1.1,1.4-1.5,2.3c-0.6,0.7-1.4,1.4-2.2,2
			c-4.5,3.5-7.7,7.5-7.4,13.7c0.1,3.2,1.9,5.2,3.9,7.2c2.5,2.6,5.3,4.8,7.6,7.5c3.7,4.1,8.4,5.9,13.7,5.9c6.7-0.1,12.4,2.2,17.5,6.3
			c3.7,3,7.4,2.9,11.1,0.6c3.8-2.4,7.4-2.5,11.6-1c3.2,1.1,6.7,1.1,10.1,1.6c2.2,0.3,3.9-0.3,4.9-1.6c0.2-0.2,0.5-0.5,0.6-0.8
			c0.7-1.1,0.8-2.4,0.4-3.6c-0.1-0.8-0.3-1.5-0.5-2.3c-0.6-1.6-1.4-3.2-2-4.8c-0.1-0.9-0.4-1.8-0.8-2.6c-0.5-2.4-0.4-4.7,0.1-6.8
			c2.3-3.3,4.1-7,5.4-10.8c3.9-7.5,3.6-15.6,2.7-23.8c-0.1-0.9-0.2-1.7-0.3-2.5c2.5,0.5,5.1,0.9,7.6,1.4c5.5,1.8,11.1,3.6,16.8,5.1
			c3.5,1,7,1.8,10.5,2.5c6.3,1.7,12.8,2.7,19.3,3c1.8,0.2,3.7,0.4,5.5,0.6c6.9,0.8,13.8,1.8,20.8,2.3c7.6,0.5,15.2,0.6,22.9,0.8
			c5.7,0.1,5.6,0.1,8,5.2c0.5,1,1,2,1.6,3c1.2,2.5,2.3,5,3.4,7.6c1.1,2.7,2.1,5.3,3.1,8c0.3,3.7-0.6,7.4-3.2,10.9
			c-2.8,3.8-5.7,7.6-8.5,11.5c-4.8,6.7-6.1,14-4.1,21.9c0.3,1.3,1.3,2.6,2.3,3.5c5.3,5.5,10.7,10.8,16.1,16.2
			c0.8,0.8,1.8,1.4,2.8,1.8c4.6,1.7,9.4,2.9,12.4,7.4c0.6,1,2.7,1.2,4.1,1.3c0.2,0,0.3,0,0.5,0c1.3,0.8,2.9,1,4.4,0.7
			c2,0.4,4,1.1,6,1.9c3,1.2,7.6,2.2,11.1-1c1.1-1.1,2.8-1.5,4.1-2.5c1.2-0.9,2.4-1.4,3.7-1.3c0.9,0.4,1.7,0.7,2.6,0.9
			c7.9,4.1,16.1-1.3,20.4-5.8c1.9-1.9,2.1-5.8,0.4-8.5c-1.3-2.2-2.7-4.3-4.2-6.4c-1.4-2.5-2.8-5-4.2-7.5c-0.6-2.7,0.3-5.2,2.8-7.9
			c7.2-7.9,13.5-16.3,18.5-25.7c2.5-4.6,3-9.6,3.5-14.5c0.1-1.3,0.3-2.7,0.4-4c0.3-1.5,0.4-3.1,0.3-4.6c0.3-4.3,0.4-8.6,0.6-12.9
			c0.1-1.7,0.7-2.2,2.4-2.4c9-0.9,18.1-1.6,27.1-3.1c10.6-1.7,21.1-3.9,31.6-6.2c3.6-0.8,7.1-2.2,10.5-3.6c2.6-1,4.5-0.8,5.6,0.6
			c0.2,1.5,0.6,2.9,1.1,4.3c0.4,7,0.6,14,1.3,20.9c0.6,6,1.9,11.9,3,17.8c0.3,1.3,1,2.7,2,3.6c1.7,1.6,3,3.3,4.2,5.1
			c0.4,0.8,0.9,1.5,1.3,2.3c1.6,3.1,2.9,6.3,4.1,9.6c0.4,1.9,1,3.7,1.9,5.3c0.2,0.4,0.3,0.8,0.5,1.2c2.3,5.6,7.3,6.2,13.9,5.8
			c2.7-0.2,5.4-0.1,8,0.3c3.1,0.5,6,1.7,9.1,2.2c4,0.7,7.7-0.4,11.4-2.1c0.6-0.3,1.2-0.5,1.9-0.6c0.5,0.2,1.1,0.3,1.7,0.3
			c1.6,0.1,3.1,0.1,4.6,0c2.3,0.1,4.4-0.4,6.4-1.5c2-0.8,4-1.8,5.8-3c1.3-0.4,2.7-0.5,4.3-0.4c3.6,0.2,7.1,0.1,10.7,0.1
			c0.6,0,1.1-0.1,1.6-0.2c1-0.1,1.9-0.5,2.6-1.1c2.9-1.9,4.3-5.8,2.5-9.2c-0.3-0.5-0.6-1.1-0.9-1.6c-0.4-1.4-1.3-2.6-2.4-3.3
			c-0.9-1-1.8-2-2.9-2.7c-6.6-4.9-11.7-10.8-13.5-19c-0.7-3-1.1-6.2-1.2-9.3c-0.3-6.1-0.6-12.2-0.5-18.3c0.3-11.5-2.3-22-8.6-31.4
			c-2-3.8-4.5-7.4-7.5-10.6c-1-1.5-1.9-3.1-2.9-4.6c0.8-0.9,1.7-1.8,2.5-2.7c3.7-2.8,8.1-3.4,12.5-3.9c5.6-0.6,10-3.4,14.3-6.6
			c2.7-2,5-4.5,7.8-6.3c5.2-3.2,11.2-4.2,17.2-5.1c10.8-1.7,21.4-3.7,30.6-10.2c5-3.5,7.6-8.7,9.2-14.2c2-6.7,3.1-13.7,4.4-20.6
			c0-0.2,0.1-0.4,0.1-0.5c0.2-0.6,0.5-1.2,0.6-1.8l0.5-4.1c0-0.8-0.1-1.5-0.2-2.3C543.3,362.1,543.4,361.3,543.4,360.6z"/>
	</g>
</g>
</svg>
