<?xml version="1.0" encoding="utf-8"?>
<!-- Generator: Adobe Illustrator 18.1.1, SVG Export Plug-In . SVG Version: 6.00 Build 0)  -->
<svg version="1.1" id="Capa_1" xmlns="http://www.w3.org/2000/svg" xmlns:xlink="http://www.w3.org/1999/xlink" x="0px" y="0px"
	 viewBox="-277 380 48 39" enable-background="new -277 380 48 39" xml:space="preserve">
<g>
	<path fill="#FFFFFF" d="M-274.1,380c-1.9,0-2.6,1.6-2.8,2.9c-0.2,1.1-0.1,2.9-0.1,4v21.4c0,2.8,2.9,2.7,2.9,2.7h17.4
		c1.1,0,2,0.9,1.4,1.9c-1,2-3.3,3-4.9,3.5c-1.1,0.3-3,0.2-3.8,1c-0.6,0.6,0.2,1.6,2.1,1.6c2,0,18.7,0,18.7,0c3,0,2.2-2.1,0-2.1
		c-4.1,0-6.7-1.7-7.5-4c-0.4-1,0.7-2,1.8-2l15.9,0.1c4.1,0.2,4.1-2.9,4.1-2.9v-23.2c0-5-4.5-4.9-4.5-4.9H-274.1z M-232,399.5
		c0,7.1-0.9,8.5-9,8.5h-23c-9.3,0-10,0.9-10-8.5v-6.6c0-10.7,1.2-9.9,9.1-9.9h23c9.2,0,9.9,0.5,9.9,9.9V399.5z"/>
	<path fill="#FFFFFF" d="M-256.5,387h-13c-1.9,0-2.5,1.6-2.5,3.5c0,1.9,0.6,3.5,2.5,3.5h13c1.9,0,2.5-1.6,2.5-3.5
		C-254,388.6-254.6,387-256.5,387z"/>
	<path fill="#FFFFFF" d="M-256.5,397h-13c-1.9,0-2.5,1.6-2.5,3.5c0,1.9,0.6,3.5,2.5,3.5h13c1.9,0,2.5-1.6,2.5-3.5
		C-254,398.6-254.6,397-256.5,397z"/>
	<path fill="#FFFFFF" d="M-236.5,387h-13c-1.9,0-2.5,1.6-2.5,3.5c0,1.9,0.6,3.5,2.5,3.5h13c1.9,0,2.5-1.6,2.5-3.5
		C-234,388.6-234.6,387-236.5,387z"/>
	<path fill="#FFFFFF" d="M-236.5,397h-13c-1.9,0-2.5,1.6-2.5,3.5c0,1.9,0.6,3.5,2.5,3.5h13c1.9,0,2.5-1.6,2.5-3.5
		C-234,398.6-234.6,397-236.5,397z"/>
</g>
</svg>
