<?xml version="1.0" encoding="utf-8"?>
<!-- Generator: Adobe Illustrator 18.1.1, SVG Export Plug-In . SVG Version: 6.00 Build 0)  -->
<svg version="1.1" id="Layer_1" xmlns="http://www.w3.org/2000/svg" xmlns:xlink="http://www.w3.org/1999/xlink" x="0px" y="0px"
	 viewBox="-290 383.7 30 27.3" enable-background="new -290 383.7 30 27.3" xml:space="preserve">
<g>
	<path fill="#FFFFFF" d="M-262.7,411c-0.6-0.5-1.1-0.8-1.6-1.2c-1.5-1.2-3.1-2.4-4.7-3.5c-0.4-0.3-1-0.5-1.5-0.5
		c-3.4,0-6.7,0-10.1,0c-0.6,0-1.2-0.2-1.7-0.3c0-0.1,0-0.2,0-0.3c0.8-0.6,1.7-1.3,2.5-1.9c0.2-0.1,0.5-0.1,0.7-0.1
		c3.3,0,6.5,0,9.8,0c0.4,0,0.8,0.2,1.1,0.4c0.9,0.6,1.8,1.4,2.9,2.1c0-0.9,0-1.7,0-2.6c0.9,0,1.7,0,2.5,0c0-4,0-7.8,0-11.8
		c-1.2,0-2.3,0-3.4,0c-0.2,0-0.4,0.5-0.4,0.7c0,1.8,0,3.6,0,5.5c0,1.9-1,2.9-2.9,2.9c-3.4,0-6.7,0-10.1,0c-0.5,0-1.1,0.2-1.5,0.5
		c-1.9,1.4-3.7,2.8-5.6,4.2c-0.2,0.1-0.4,0.3-0.7,0.5c0-1.5,0-2.9,0-4.3c0-0.5,0-0.8-0.7-1c-1.1-0.2-1.9-1.2-1.9-2.4
		c0-4,0-7.9,0-11.9c0-1.4,1.1-2.5,2.5-2.5c6.1,0,12.3,0,18.4,0c1.4,0,2.4,1.1,2.5,2.5c0,0.6,0,1.2,0,1.9c0,0.7,0.1,1,0.9,0.9
		c1-0.1,2,0,2.9,0c1.6,0,2.7,1,2.7,2.6c0,3.9,0,7.8,0,11.7c0,1.3-0.8,2.2-2,2.5c-0.5,0.1-0.6,0.3-0.6,0.7c0,1.2,0,2.4,0,3.5
		C-262.7,410.3-262.7,410.5-262.7,411z M-269.3,398c0.1-0.2,0.1-0.2,0.1-0.3c0-3.6,0-7.2,0-10.8c0-0.6-0.3-0.6-0.8-0.6
		c-5.6,0-11.2,0-16.7,0c-0.6,0-0.8,0.2-0.8,0.8c0,3.4,0,6.8,0,10.2c0,0.2,0,0.5,0.1,0.8c0.9,0,1.7,0,2.6,0c0,0.8,0,1.6,0,2.5
		c1.1-0.8,2-1.5,2.9-2.2c0.3-0.2,0.8-0.4,1.1-0.4c1.5,0,3.1,0,4.6,0C-273.8,398-271.5,398-269.3,398z"/>
	<g>
		<circle fill="#FFFFFF" cx="-282.5" cy="392.3" r="1.4"/>
		<circle fill="#FFFFFF" cx="-277.7" cy="392.3" r="1.4"/>
		<circle fill="#FFFFFF" cx="-272.8" cy="392.3" r="1.4"/>
	</g>
</g>
</svg>
