<?xml version="1.0" encoding="utf-8"?>
<!-- Generator: Adobe Illustrator 18.1.1, SVG Export Plug-In . SVG Version: 6.00 Build 0)  -->
<svg version="1.1" id="Capa_1" xmlns="http://www.w3.org/2000/svg" xmlns:xlink="http://www.w3.org/1999/xlink" x="0px" y="0px" width="24px" height="19px"
	 viewBox="0 0 24 19" xml:space="preserve">
<g>
	<g>
		<path d="M20.6,5.8L20.6,5.8l-2.3-5.2C18.1,0.2,17.8,0,17.4,0H4.2C3.8,0,3.5,0.2,3.3,0.6L1.1,5.8H1c-0.5,0-1,0.4-1,1v1.6v4.3
			c0,0.5,0.4,1,1,1h0.4v1.8c0,0.5,0.4,1,1,1h2.4c0.5,0,1-0.4,1-1v-1.8h10.5v1.8c0,0.5,0.4,1,1,1h2.4c0.5,0,1-0.4,1-1v-1.8H21
			c0.5,0,1-0.4,1-1V8.4V6.8C21.6,6.2,21.2,5.8,20.6,5.8z M4.8,2h12l1.7,3.8H3.2L4.8,2z M4.3,11.5c-1.1,0-1.9-0.9-1.9-1.9
			c0-1.1,0.9-1.9,1.9-1.9c1.1,0,1.9,0.9,1.9,1.9C6.2,10.8,5.3,11.5,4.3,11.5z M17.4,11.5c-1.1,0-1.9-0.9-1.9-1.9
			c0-1.1,0.9-1.9,1.9-1.9c1.1,0,1.9,0.9,1.9,1.9C19.2,10.8,18.4,11.5,17.4,11.5z"/>
	</g>
</g>
</svg>
