<?xml version="1.0" encoding="utf-8"?>
<!-- Generator: Adobe Illustrator 18.1.1, SVG Export Plug-In . SVG Version: 6.00 Build 0)  -->
<svg version="1.1" id="Capa_1" xmlns="http://www.w3.org/2000/svg" xmlns:xlink="http://www.w3.org/1999/xlink" x="0px" y="0px"
	 viewBox="0 0 612 792" enable-background="new 0 0 612 792" xml:space="preserve">
<g>
	<path fill="#FFFFFF" d="M546.4,252.5h-6.8l-17.2-48.6c-1.6-4.6-5.3-8.2-10-9.7l-22.2-7.2c-8.3-2.7-17.2,1.9-19.9,10.2
		c-2.7,8.3,1.9,17.2,10.2,19.9l14.8,4.8l10.9,30.7h-4.7c-3.1,0-5.9,1.8-7.2,4.7l-12.8,28.4c-0.5,1.1-0.8,2.4-0.7,3.7l4.8,86.7
		c0.2,4.2,3.7,7.4,7.9,7.4h4.9v188c0,21-11.9,39.2-29.3,48.3V502.5c0-11.5-4.2-22.1-11.1-30.4V148.8c0-32.4-26.4-58.8-58.8-58.8
		H127.6c-32.4,0-58.8,26.4-58.8,58.8v323.3c-6.9,8.2-11.1,18.8-11.1,30.4v152.2c0,26.1,21.2,47.3,47.3,47.3h316.7
		c23.6,0,43.2-17.3,46.7-39.9c39.9-10.9,69.3-47.4,69.3-90.7v-188h8.6c4.3,0,7.9-3.5,7.9-7.9V260.4
		C554.3,256,550.7,252.5,546.4,252.5z M394.9,258.8h-263V153.1h263V258.8z"/>
</g>
</svg>
