<?xml version="1.0" encoding="utf-8"?>
<!-- Generator: Adobe Illustrator 18.1.1, SVG Export Plug-In . SVG Version: 6.00 Build 0)  -->
<svg version="1.1" id="Capa_1" xmlns="http://www.w3.org/2000/svg" xmlns:xlink="http://www.w3.org/1999/xlink" x="0px" y="0px"
	 viewBox="161.9 43.3 612.1 592.5" enable-background="new 161.9 43.3 612.1 592.5" xml:space="preserve">
<g>
	<g>
		<path fill="#FFFFFF" d="M577.3,121.7c5,0,9-4,9-9V92.4c0-5-4-9-9-9h-82.4V52.2c0-5-4-9-9-9h-34.5c-5,0-9,4-9,9v260.6
			c-30.9,11-52.8,40.8-52,75.6c0.4,16.2,5.8,31.3,14.7,43.6c4.6-7.5,9.8-15.5,16.6-22.5c12.8-13.2,28.8-20.1,46.1-20.1
			c17.3,0,33.3,6.9,46.1,20.1c7.1,7.3,12.6,15.7,17.3,23.6c9.7-13,15.4-29.2,15.4-46.7c0-34-21.7-62.9-52-73.7V253h82.4c5,0,9-4,9-9
			v-20.3c0-5-4-9-9-9h-82.4v-27.4h82.4c5,0,9-4,9-9v-20.3c0-5-4-9-9-9h-82.4v-27.4H577.3L577.3,121.7z"/>
		<path fill="#FFFFFF" d="M721.7,446.7c-9.7,16.8-15.4,24.6-24.1,24.6c-8.8,0-14.3-7.9-24.1-24.6c-5.2-8.9-10.6-18.1-17.9-25.6
			c-9.8-10.1-21.4-15.2-34.4-15.2c-13,0-24.6,5.1-34.4,15.2c-7.4,7.6-12.8,16.8-17.9,25.6c-9.7,16.8-15.4,24.6-24.1,24.6
			s-14.3-7.9-24.1-24.6c-0.2-0.3-0.4-0.7-0.6-1c-5-8.6-10.3-17.4-17.4-24.7c-9.8-10.1-21.4-15.2-34.4-15.2s-24.6,5.1-34.4,15.2
			c-6.9,7.1-12,15.5-16.9,23.8c-0.4,0.6-0.7,1.2-1.1,1.8c-9.7,16.8-15.4,24.6-24.1,24.6s-14.3-7.9-24.1-24.6
			c-5.2-8.9-10.6-18.1-17.9-25.6c-9.8-10.1-21.4-15.2-34.4-15.2s-24.6,5.1-34.4,15.2c-7.4,7.6-12.8,16.8-17.9,25.6
			c-9.7,16.8-15.4,24.6-24.1,24.6c-8.8,0-14.3-7.9-24.1-24.6c-5.2-8.9-10.6-18.1-17.9-25.6c-9.8-10.1-21.4-15.2-34.4-15.2v32.7
			c8.8,0,14.3,7.9,24.1,24.6c5.2,8.9,10.6,18.1,17.9,25.6c9.8,10.1,21.4,15.2,34.4,15.2s24.6-5.1,34.4-15.2
			c7.4-7.6,12.8-16.8,17.9-25.6c9.7-16.8,15.4-24.6,24.1-24.6s14.3,7.9,24.1,24.6c5.2,8.9,10.6,18.1,17.9,25.6
			c9.8,10.1,21.4,15.2,34.4,15.2c13,0,24.6-5.1,34.4-15.2c7.4-7.6,12.8-16.8,17.9-25.6c9.7-16.8,15.4-24.6,24.1-24.6
			c8.8,0,14.3,7.9,24.1,24.6c5.2,8.9,10.6,18.1,17.9,25.6c9.8,10.1,21.4,15.2,34.4,15.2c13,0,24.6-5.1,34.4-15.2
			c7.4-7.6,12.8-16.8,17.9-25.6c9.7-16.8,15.4-24.6,24.1-24.6c8.8,0,14.3,7.9,24.1,24.6c5.2,8.9,10.6,18.1,17.9,25.6
			c9.8,10.1,21.4,15.2,34.4,15.2c13,0,24.6-5.1,34.4-15.2c7.4-7.6,12.8-16.8,17.9-25.6c9.7-16.8,15.4-24.6,24.1-24.6v-32.7
			c-13,0-24.6,5.1-34.4,15.2C732.2,428.6,726.8,437.8,721.7,446.7z"/>
		<path fill="#FFFFFF" d="M721.7,578.5c-9.7,16.8-15.4,24.6-24.1,24.6c-8.8,0-14.3-7.9-24.1-24.6c-5.2-8.9-10.6-18.1-17.9-25.6
			c-9.8-10.1-21.4-15.2-34.4-15.2c-13,0-24.6,5.1-34.4,15.2c-7.4,7.6-12.8,16.8-17.9,25.6c-9.7,16.8-15.4,24.6-24.1,24.6
			s-14.3-7.9-24.1-24.6c-5.2-8.9-10.6-18.1-17.9-25.6c-9.8-10.1-21.4-15.2-34.4-15.2c-13,0-24.6,5.1-34.4,15.2
			c-7.4,7.6-12.8,16.8-17.9,25.6c-9.7,16.8-15.4,24.6-24.1,24.6c-8.8,0-14.3-7.9-24.1-24.6c-5.2-8.9-10.6-18.1-17.9-25.6
			c-9.8-10.1-21.4-15.2-34.4-15.2s-24.6,5.1-34.4,15.2c-7.4,7.6-12.8,16.8-17.9,25.6c-9.7,16.8-15.4,24.6-24.1,24.6
			s-14.3-7.9-24.1-24.6c-5.2-8.9-10.6-18.1-17.9-25.6c-9.8-10.1-21.4-15.2-34.4-15.2v32.7c8.8,0,14.3,7.9,24.1,24.6
			c5.2,8.9,10.6,18.1,17.9,25.6c9.8,10.1,21.4,15.2,34.4,15.2s24.6-5.1,34.4-15.2c7.4-7.6,12.8-16.8,17.9-25.6
			c9.7-16.8,15.4-24.6,24.1-24.6c8.8,0,14.3,7.9,24.1,24.6c5.2,8.9,10.6,18.1,17.9,25.6c9.8,10.1,21.4,15.2,34.4,15.2
			s24.6-5.1,34.4-15.2c7.4-7.6,12.8-16.8,17.9-25.6c9.7-16.8,15.4-24.6,24.1-24.6c8.8,0,14.3,7.9,24.1,24.6
			c5.2,8.9,10.6,18.1,17.9,25.6c9.8,10.1,21.4,15.2,34.4,15.2c13,0,24.6-5.1,34.4-15.2c7.4-7.6,12.8-16.8,17.9-25.6
			c9.7-16.8,15.4-24.6,24.1-24.6c8.8,0,14.3,7.9,24.1,24.6c5.2,8.9,10.6,18.1,17.9,25.6c9.8,10.1,21.4,15.2,34.4,15.2
			c13,0,24.6-5.1,34.4-15.2c7.4-7.6,12.8-16.8,17.9-25.6c9.7-16.8,15.4-24.6,24.1-24.6v-32.7c-13,0-24.6,5.1-34.4,15.2
			C732.2,560.4,726.8,569.6,721.7,578.5z"/>
	</g>
</g>
</svg>
